<svg width="24" height="24" viewBox="0 0 24 24" fill="none" xmlns="http://www.w3.org/2000/svg">
<path d="M21 11.6667C21 16.8179 16.8179 21 11.6667 21C6.51546 21 2.33333 16.8179 2.33333 11.6667C2.33333 6.51546 6.51546 2.33333 11.6667 2.33333C16.8179 2.33333 21 6.51546 21 11.6667ZM11.6667 23.3333C18.1102 23.3333 23.3333 18.1102 23.3333 11.6667C23.3333 5.22317 18.1102 0 11.6667 0C5.67347 9.045e-05 -0.000405693 5.67676 3.67974e-09 11.6667C0.000405701 17.6566 5.86717 23.3333 11.6667 23.3333ZM12.0843 8.61233C10.9503 9.08444 8.68272 10.0617 5.2815 11.5442C4.7285 11.7635 4.43917 11.9782 4.4135 12.1882C4.36917 12.5428 4.81367 12.6828 5.41917 12.873L5.6735 12.9547C6.2685 13.1483 7.07117 13.3747 7.48767 13.384C7.86567 13.3918 8.28722 13.2362 8.75234 12.9173C11.9303 10.7707 13.5707 9.68605 13.6733 9.6635C13.7468 9.64717 13.8472 9.62617 13.9148 9.68683C13.9837 9.7475 13.9767 9.86183 13.9697 9.89333C13.9253 10.0812 12.18 11.704 11.277 12.5428C11.0094 12.7948 10.7438 13.0488 10.4802 13.3047C9.92717 13.8378 9.51184 14.238 10.5035 14.8913C11.508 15.554 12.5218 16.2143 13.5018 16.9132C13.9848 17.2585 14.4188 17.5665 14.9555 17.5187C15.267 17.4895 15.589 17.1967 15.7523 16.3217C16.1397 14.2567 16.8992 9.779 17.0742 7.93333C17.0843 7.78023 17.0777 7.62648 17.0543 7.47483C17.0405 7.35278 16.9814 7.24036 16.8887 7.15983C16.7487 7.0455 16.5328 7.02217 16.4372 7.02333C15.9985 7.0315 15.3253 7.26483 12.0855 8.61233H12.0843Z" fill="#D4AF37" fill-opacity="0.7" style="fill:#D4AF37;fill:color(display-p3 0.8314 0.6863 0.2157);fill-opacity:0.7;"/>
</svg>
