<svg width="21" height="21" viewBox="0 0 21 21" fill="none" xmlns="http://www.w3.org/2000/svg">
<path d="M3.30297 3.30413C2.90163 3.7113 2.63797 4.28297 2.49097 5.36913C2.34047 6.49497 2.3393 7.98597 2.3393 10.1315V10.8781C2.3393 13.0201 2.34047 14.51 2.49097 15.6346C2.6368 16.722 2.90163 17.2971 3.30413 17.7078C3.71247 18.108 4.28413 18.3728 5.36913 18.5186C6.49497 18.6691 7.98597 18.6715 10.1315 18.6715H10.8781C13.0201 18.6715 14.51 18.6691 15.6358 18.5186C16.722 18.3728 17.2971 18.108 17.7078 17.7055C18.108 17.2983 18.3728 16.7266 18.5186 15.6405C18.6703 14.5146 18.6715 13.0236 18.6715 10.8781V10.1315C18.6715 7.98947 18.6691 6.49963 18.5198 5.37497C18.3728 4.28763 18.108 3.71247 17.7055 3.3018C17.2983 2.90163 16.7266 2.6368 15.6405 2.49097C14.5146 2.34047 13.0236 2.33813 10.8781 2.33813H10.1315C7.98947 2.33813 6.49963 2.34047 5.37497 2.49097C4.28763 2.6368 3.71363 2.90163 3.30297 3.30413V3.30413M10.1315 0.0048009H10.8781C12.564 0.0048009 14.2755 -0.0453658 15.9496 0.178634C17.2983 0.359468 18.4405 0.745634 19.3528 1.64863L19.3621 1.65913C20.264 2.5738 20.6513 3.71597 20.8321 5.0658C21.055 6.73763 21.0048 8.44797 21.0048 10.1315V10.8781C21.0048 12.5628 21.0561 14.2743 20.831 15.9496C20.6513 17.2983 20.264 18.4405 19.361 19.3528L19.3505 19.3621C18.437 20.264 17.2948 20.6501 15.9438 20.8321C14.272 21.055 12.5616 21.0048 10.8781 21.0048H10.1315C8.4468 21.0048 6.7353 21.055 5.06113 20.831C3.7113 20.6501 2.56913 20.264 1.65797 19.361L1.64747 19.3505C0.746801 18.4358 0.359468 17.2936 0.178634 15.9438C-0.0453658 14.2731 0.0048009 12.5628 0.0048009 10.8781V10.1315C0.0048009 8.4468 -0.0453658 6.7353 0.179801 5.05997C0.359468 3.7113 0.746801 2.56913 1.6498 1.6568L1.65913 1.64747C2.5738 0.745634 3.71597 0.359468 5.0658 0.177468C6.7388 -0.0441991 8.44913 0.0048009 10.1315 0.0048009V0.0048009M3.5468 6.3958C3.6588 11.8558 6.3888 15.1318 11.1768 15.1318H11.4568V12.0098C13.2138 12.1848 14.5438 13.4728 15.0758 15.1318H17.5608C17.0455 13.2248 15.7384 11.6297 13.9698 10.7498C15.5533 9.78519 16.664 8.20528 17.0358 6.3888H14.7818C14.2918 8.1248 12.8358 9.6998 11.4568 9.8468V6.3958H9.1958V12.4438C7.7958 12.0938 6.0318 10.3998 5.9548 6.3958H3.5468" fill="#D4AF37" fill-opacity="0.7" style="fill:#D4AF37;fill:color(display-p3 0.8314 0.6863 0.2157);fill-opacity:0.7;"/>
</svg>
