<svg width="21" height="21" viewBox="0 0 21 21" fill="none" xmlns="http://www.w3.org/2000/svg">
<path fill-rule="evenodd" clip-rule="evenodd" d="M10.7256 20.9401C8.66473 20.9401 7.707 20.6379 6.04225 19.4292C4.98924 20.789 1.65472 21.8516 1.50931 20.0336C1.50931 18.6688 1.20845 17.5155 0.867476 16.2565C0.461317 14.7054 0 12.978 0 10.4751C0 4.49723 4.88394 0 10.6705 0C16.462 0 20.9999 4.71882 20.9999 10.5305C21.0093 13.2784 19.9327 15.9179 18.0064 17.8695C16.0802 19.8211 13.4617 20.9254 10.7256 20.9401ZM10.8109 5.16703C7.99281 5.02098 5.79655 6.98002 5.31016 10.052C4.90901 12.5953 5.62104 15.6925 6.22778 15.8536C6.51861 15.9241 7.2507 15.3299 7.707 14.8716C8.46152 15.3951 9.34015 15.7095 10.2543 15.7831C11.6579 15.8509 13.032 15.3629 14.0812 14.4241C15.1305 13.4852 15.771 12.1703 15.8653 10.7621C15.9202 9.35102 15.4213 7.97468 14.476 6.92924C13.5307 5.8838 12.2146 5.25282 10.8109 5.17207V5.16703Z" fill="#947A26" style="fill:#947A26;fill:color(display-p3 0.5804 0.4784 0.1490);fill-opacity:1;"/>
</svg>
